
<svg width="640" height="200" viewBox="0 0 623 145" fill="none" xmlns="http://www.w3.org/2000/svg">
<g clip-path="url(#clip0_9_3)">
<path d="M-1.69169e-05 33.4248C-1.52824e-05 24.0325 10.1986 18.2311 18.2149 23.0635L48.4568 41.2936C55.702 45.661 60.1351 53.5275 60.1351 62.0163V82.9837C60.1351 91.4726 55.702 99.339 48.4568 103.707L18.2148 121.937C10.1985 126.769 -3.21521e-05 120.967 -3.05176e-05 111.575L-1.69169e-05 33.4248Z" fill="#FA776C"/>
<path d="M124.907 -9.41326e-06C131.276 -8.0533e-06 134.522 7.68739 130.095 12.2889L114.132 28.8796C109.6 33.5901 103.358 36.25 96.8374 36.25H66.7977C62.4381 36.25 58.1604 35.0595 54.4221 32.806L22.3401 13.4667C16.0643 9.68363 18.734 -3.20801e-05 26.0528 -3.05176e-05L124.907 -9.41326e-06Z" fill="#624CF5"/>
<path d="M124.907 145C131.276 145 134.522 137.313 130.095 132.711L114.132 116.12C109.6 111.41 103.358 108.75 96.8374 108.75H66.7977C62.4381 108.75 58.1604 109.94 54.4221 112.194L22.3401 131.533C16.0643 135.316 18.734 145 26.0528 145H124.907Z" fill="#624CF5"/>
<path d="M103.432 72.5C103.432 62.4898 95.3554 54.375 85.3919 54.375C75.4284 54.375 67.3513 62.4898 67.3513 72.5C67.3513 82.5102 75.4284 90.625 85.3919 90.625C95.3554 90.625 103.432 82.5102 103.432 72.5Z" fill="#FA776C"/>
<path d="M155 91V44.4545H188.545V54.6364H167.636V62.6364H186.818V72.8182H167.636V80.8182H188.455V91H155ZM230.176 56.0909L218.449 91H203.903L192.176 56.0909H205.358L210.994 79.1818H211.358L216.994 56.0909H230.176ZM249.409 91.6364C245.682 91.6364 242.47 90.9242 239.773 89.5C237.091 88.0606 235.023 86 233.568 83.3182C232.129 80.6212 231.409 77.3939 231.409 73.6364C231.409 70.0303 232.136 66.8788 233.591 64.1818C235.045 61.4848 237.098 59.3864 239.75 57.8864C242.402 56.3864 245.53 55.6364 249.136 55.6364C251.773 55.6364 254.159 56.0455 256.295 56.8636C258.432 57.6818 260.258 58.8712 261.773 60.4318C263.288 61.9773 264.455 63.8561 265.273 66.0682C266.091 68.2803 266.5 70.7727 266.5 73.5455V76.4545H235.318V69.5455H254.955C254.939 68.5455 254.682 67.6667 254.182 66.9091C253.697 66.1364 253.038 65.5379 252.205 65.1136C251.386 64.6742 250.455 64.4545 249.409 64.4545C248.394 64.4545 247.462 64.6742 246.614 65.1136C245.765 65.5379 245.083 66.1288 244.568 66.8864C244.068 67.6439 243.803 68.5303 243.773 69.5455V77C243.773 78.1212 244.008 79.1212 244.477 80C244.947 80.8788 245.621 81.5682 246.5 82.0682C247.379 82.5682 248.439 82.8182 249.682 82.8182C250.545 82.8182 251.333 82.697 252.045 82.4545C252.773 82.2121 253.394 81.8636 253.909 81.4091C254.424 80.9394 254.803 80.3788 255.045 79.7273H266.5C266.106 82.1515 265.174 84.2576 263.705 86.0455C262.235 87.8182 260.288 89.197 257.864 90.1818C255.455 91.1515 252.636 91.6364 249.409 91.6364ZM284.165 71.3636V91H271.619V56.0909H283.528V62.7273H283.892C284.65 60.5152 285.983 58.7803 287.892 57.5227C289.816 56.2652 292.059 55.6364 294.619 55.6364C297.089 55.6364 299.233 56.2045 301.051 57.3409C302.884 58.4621 304.301 60.0076 305.301 61.9773C306.316 63.947 306.816 66.197 306.801 68.7273V91H294.256V71.3636C294.271 69.6364 293.831 68.2803 292.938 67.2955C292.059 66.3106 290.831 65.8182 289.256 65.8182C288.225 65.8182 287.324 66.0455 286.551 66.5C285.794 66.9394 285.21 67.5758 284.801 68.4091C284.392 69.2273 284.18 70.2121 284.165 71.3636ZM333.812 56.0909V65.1818H310.812V56.0909H333.812ZM315.267 47.7273H327.812V79.7727C327.812 80.2576 327.896 80.6667 328.062 81C328.229 81.3182 328.487 81.5606 328.835 81.7273C329.184 81.8788 329.631 81.9545 330.176 81.9545C330.555 81.9545 330.994 81.9091 331.494 81.8182C332.009 81.7273 332.388 81.6515 332.631 81.5909L334.449 90.4091C333.888 90.5758 333.085 90.7803 332.04 91.0227C331.009 91.2652 329.782 91.4242 328.358 91.5C325.479 91.6515 323.063 91.3561 321.108 90.6136C319.153 89.8561 317.684 88.6667 316.699 87.0455C315.714 85.4242 315.237 83.3939 315.267 80.9545V47.7273ZM339.5 91V44.4545H359.682C363.227 44.4545 366.205 44.9318 368.614 45.8864C371.038 46.8409 372.864 48.1894 374.091 49.9318C375.333 51.6742 375.955 53.7273 375.955 56.0909C375.955 57.803 375.576 59.3636 374.818 60.7727C374.076 62.1818 373.03 63.3636 371.682 64.3182C370.333 65.2576 368.758 65.9091 366.955 66.2727V66.7273C368.955 66.803 370.773 67.3106 372.409 68.25C374.045 69.1742 375.348 70.4545 376.318 72.0909C377.288 73.7121 377.773 75.6212 377.773 77.8182C377.773 80.3636 377.106 82.6288 375.773 84.6136C374.455 86.5985 372.576 88.1591 370.136 89.2955C367.697 90.4318 364.788 91 361.409 91H339.5ZM352.136 80.9091H358.045C360.167 80.9091 361.758 80.5152 362.818 79.7273C363.879 78.9242 364.409 77.7424 364.409 76.1818C364.409 75.0909 364.159 74.1667 363.659 73.4091C363.159 72.6515 362.447 72.0758 361.523 71.6818C360.614 71.2879 359.515 71.0909 358.227 71.0909H352.136V80.9091ZM352.136 63.2727H357.318C358.424 63.2727 359.402 63.0985 360.25 62.75C361.098 62.4015 361.758 61.9015 362.227 61.25C362.712 60.5833 362.955 59.7727 362.955 58.8182C362.955 57.3788 362.439 56.2803 361.409 55.5227C360.379 54.75 359.076 54.3636 357.5 54.3636H352.136V63.2727ZM405.068 75.7273V56.0909H417.614V91H405.705V84.3636H405.341C404.583 86.5909 403.258 88.3333 401.364 89.5909C399.47 90.8333 397.22 91.4545 394.614 91.4545C392.174 91.4545 390.038 90.8939 388.205 89.7727C386.386 88.6515 384.97 87.1061 383.955 85.1364C382.955 83.1667 382.447 80.9091 382.432 78.3636V56.0909H394.977V75.7273C394.992 77.4545 395.432 78.8106 396.295 79.7955C397.174 80.7803 398.402 81.2727 399.977 81.2727C401.023 81.2727 401.924 81.053 402.682 80.6136C403.455 80.1591 404.045 79.5227 404.455 78.7045C404.879 77.8712 405.083 76.8788 405.068 75.7273ZM436.631 91.4545C434.146 91.4545 431.858 90.803 429.767 89.5C427.691 88.197 426.025 86.2197 424.767 83.5682C423.525 80.9167 422.903 77.5758 422.903 73.5455C422.903 69.3333 423.555 65.9091 424.858 63.2727C426.176 60.6364 427.873 58.7045 429.949 57.4773C432.04 56.25 434.237 55.6364 436.54 55.6364C438.267 55.6364 439.782 55.9394 441.085 56.5455C442.388 57.1364 443.479 57.9318 444.358 58.9318C445.237 59.9167 445.903 61 446.358 62.1818H446.54V44.4545H459.085V91H446.631V85.2727H446.358C445.873 86.4545 445.176 87.5152 444.267 88.4545C443.373 89.3788 442.282 90.1136 440.994 90.6591C439.722 91.1894 438.267 91.4545 436.631 91.4545ZM441.267 81.8182C442.419 81.8182 443.403 81.4848 444.222 80.8182C445.055 80.1364 445.691 79.1818 446.131 77.9545C446.585 76.7121 446.812 75.2424 446.812 73.5455C446.812 71.8182 446.585 70.3409 446.131 69.1136C445.691 67.8712 445.055 66.9242 444.222 66.2727C443.403 65.6061 442.419 65.2727 441.267 65.2727C440.116 65.2727 439.131 65.6061 438.312 66.2727C437.509 66.9242 436.888 67.8712 436.449 69.1136C436.025 70.3409 435.812 71.8182 435.812 73.5455C435.812 75.2727 436.025 76.7576 436.449 78C436.888 79.2273 437.509 80.1742 438.312 80.8409C439.131 81.4924 440.116 81.8182 441.267 81.8182ZM477.881 91.4545C475.396 91.4545 473.108 90.803 471.017 89.5C468.941 88.197 467.275 86.2197 466.017 83.5682C464.775 80.9167 464.153 77.5758 464.153 73.5455C464.153 69.3333 464.805 65.9091 466.108 63.2727C467.426 60.6364 469.123 58.7045 471.199 57.4773C473.29 56.25 475.487 55.6364 477.79 55.6364C479.517 55.6364 481.032 55.9394 482.335 56.5455C483.638 57.1364 484.729 57.9318 485.608 58.9318C486.487 59.9167 487.153 61 487.608 62.1818H487.79V44.4545H500.335V91H487.881V85.2727H487.608C487.123 86.4545 486.426 87.5152 485.517 88.4545C484.623 89.3788 483.532 90.1136 482.244 90.6591C480.972 91.1894 479.517 91.4545 477.881 91.4545ZM482.517 81.8182C483.669 81.8182 484.653 81.4848 485.472 80.8182C486.305 80.1364 486.941 79.1818 487.381 77.9545C487.835 76.7121 488.062 75.2424 488.062 73.5455C488.062 71.8182 487.835 70.3409 487.381 69.1136C486.941 67.8712 486.305 66.9242 485.472 66.2727C484.653 65.6061 483.669 65.2727 482.517 65.2727C481.366 65.2727 480.381 65.6061 479.562 66.2727C478.759 66.9242 478.138 67.8712 477.699 69.1136C477.275 70.3409 477.062 71.8182 477.062 73.5455C477.062 75.2727 477.275 76.7576 477.699 78C478.138 79.2273 478.759 80.1742 479.562 80.8409C480.381 81.4924 481.366 81.8182 482.517 81.8182ZM514.131 104.091C512.691 104.091 511.32 103.977 510.017 103.75C508.714 103.538 507.57 103.242 506.585 102.864L509.312 93.9545C510.343 94.3182 511.282 94.553 512.131 94.6591C512.994 94.7652 513.729 94.7045 514.335 94.4773C514.956 94.25 515.403 93.8182 515.676 93.1818L515.949 92.5455L503.676 56.0909H516.767L522.403 80.2727H522.767L528.494 56.0909H541.676L528.949 93.9091C528.312 95.8333 527.388 97.5606 526.176 99.0909C524.979 100.636 523.403 101.856 521.449 102.75C519.494 103.644 517.055 104.091 514.131 104.091Z" fill="black"/>
</g>
<defs>
<clipPath id="clip0_9_3">
<rect width="623" height="145" fill="white"/>
</clipPath>
</defs>
</svg>


